<svg width="40" height="40" viewBox="0 0 40 40" fill="none" xmlns="http://www.w3.org/2000/svg">
<path d="M6.66634 10.2384V31.6118L15.108 27.9951L25.108 32.9951L33.333 29.4668V8.0951L35.5047 7.1651C35.6315 7.11074 35.7698 7.08872 35.9072 7.10101C36.0447 7.1133 36.1769 7.15951 36.292 7.23551C36.4072 7.31151 36.5017 7.41491 36.567 7.53643C36.6323 7.65796 36.6665 7.7938 36.6663 7.93177V31.6668L24.9997 36.6668L14.9997 31.6668L4.49467 36.1684C4.36786 36.2228 4.22954 36.2448 4.09212 36.2325C3.95469 36.2202 3.82247 36.174 3.70732 36.098C3.59217 36.022 3.49768 35.9186 3.43235 35.7971C3.36702 35.6756 3.33289 35.5397 3.33301 35.4018V11.6668L6.66634 10.2384ZM27.0713 18.7384L19.9997 25.8084L12.928 18.7384C11.5297 17.3398 10.5774 15.558 10.1917 13.6182C9.80598 11.6785 10.0041 9.66791 10.761 7.84074C11.518 6.01358 12.7997 4.45189 14.4441 3.35315C16.0886 2.25442 18.0219 1.66797 19.9997 1.66797C21.9774 1.66797 23.9107 2.25442 25.5552 3.35315C27.1997 4.45189 28.4814 6.01358 29.2383 7.84074C29.9952 9.66791 30.1934 11.6785 29.8077 13.6182C29.4219 15.558 28.4697 17.3398 27.0713 18.7384ZM19.9997 21.0951L24.713 16.3801C25.6456 15.4478 26.2807 14.26 26.5381 12.9667C26.7955 11.6734 26.6636 10.3329 26.1591 9.11459C25.6545 7.8963 24.8001 6.85499 23.7037 6.12236C22.6073 5.38972 21.3183 4.99868 19.9997 4.99868C18.681 4.99868 17.392 5.38972 16.2957 6.12236C15.1993 6.85499 14.3448 7.8963 13.8403 9.11459C13.3358 10.3329 13.2039 11.6734 13.4613 12.9667C13.7187 14.26 14.3538 15.4478 15.2863 16.3801L19.9997 21.0951Z" fill="url(#paint0_linear_562_849)"/>
<defs>
<linearGradient id="paint0_linear_562_849" x1="19.9997" y1="1.66797" x2="19.9997" y2="36.6668" gradientUnits="userSpaceOnUse">
<stop stop-color="#52ACFA"/>
<stop offset="1" stop-color="#5378F9"/>
</linearGradient>
</defs>
</svg>
