<svg width="501" height="363" viewBox="0 0 501 363" fill="none" xmlns="http://www.w3.org/2000/svg">
<g clip-path="url(#clip0_89_331)">
<path d="M15.9092 154.865C8.52979 141.318 6.44841 125.512 10.0692 110.516C20.3298 68.099 49.4564 -6.34829 126.543 4.19292C233.501 18.8335 264.592 22.4936 308.477 8.76404C352.362 -4.96557 428.241 -4.9493 452.011 26.1335C466.42 44.9751 515.092 129.431 484.009 158.712C452.926 187.993 499.056 245.884 500.463 276.65C501.871 307.415 457.497 311.372 401.729 312.308C345.961 313.243 21.8224 302.592 21.8224 302.592C21.8224 302.592 -19.7325 230.923 13.1804 205.322C33.547 189.49 24.4292 170.514 15.9092 154.865Z" fill="#7EC1FB" fill-opacity="0.2"/>
<path d="M48.3381 269.069C41.2048 268.821 14.4817 272.469 12.916 273.868C12.5093 274.246 6.66529 291.624 32.3798 314.085C73.5198 350.02 184.231 351.248 220.113 337.579C272.168 317.745 329.209 354.936 447.448 340.702C485.233 336.156 510.484 278.277 493.306 270.773C483.021 266.3 470.706 278.171 460.364 272.961C448.461 266.955 424.341 263.201 409.407 267.809C409.118 267.887 408.871 268.074 408.718 268.33C408.564 268.587 408.516 268.893 408.583 269.184C408.651 269.475 408.828 269.729 409.079 269.892C409.33 270.055 409.634 270.114 409.928 270.058L402.062 272.567C393.323 279.074 395.291 270.428 374.79 269.313L314.345 267.821C292.734 268.472 209.58 272.128 177.045 270.826H159.151C147.211 269.334 116.238 268.626 115.123 268.589L48.3381 269.069Z" fill="#7EC1FB" fill-opacity="0.2"/>
<path d="M72.9341 180.543H91.2348C91.2348 180.543 96.9284 181.356 97.335 185.423C97.7417 189.49 97.2008 242.391 97.2008 242.391L133.936 241.952C133.936 241.952 137.597 243.172 137.597 247.239C137.597 251.305 134.75 252.932 134.75 252.932L78.9367 252.68L72.9341 180.543Z" fill="#1C4DF7"/>
<path d="M72.9341 180.543C72.9341 180.543 67.6472 181.356 67.2406 189.49C66.8339 197.623 67.2406 252.526 67.2406 252.526L123.001 252.932C123.4 252.934 123.796 252.853 124.162 252.693C124.529 252.534 124.857 252.299 125.128 252.005C125.941 251.11 127.023 249.711 127.023 248.467C127.023 246.275 126.21 242.773 121.736 242.773C117.263 242.773 79.441 242.367 79.441 242.367L78.6277 185.431C78.6277 185.431 78.6277 181.356 72.9341 180.543Z" fill="#1C4DF7"/>
<path d="M96.2858 252.794C96.2858 252.794 95.3017 257.406 98.5551 257.406H103.842C104.249 257.406 105.981 254.966 104.912 252.932C103.842 250.899 96.2899 252.79 96.2899 252.79" fill="#1C4DF7"/>
<path d="M98.5552 257.43L98.9619 303.361H102.622L102.825 257.166L98.5552 257.43Z" fill="#5378F9"/>
<path d="M83.5078 302.547L118.483 302.954V306.208L83.5078 305.801V302.547Z" fill="#5378F9"/>
<path d="M152.644 306.614L151.017 221.618H159.558L159.151 306.614H152.644ZM338.498 222.024H347.852L344.598 307.021L338.498 307.428V222.024Z" fill="white"/>
<path d="M144.51 206.977L144.917 220.804L351.919 222.024L352.138 206.558L144.51 206.977Z" fill="#5378F9"/>
<path d="M131.903 199.25L364.526 200.063V207.79L132.31 207.384L131.903 199.25Z" fill="#1C4DF7"/>
<path d="M416.463 271.538L416.87 306.106L463.231 305.293V271.538H416.463Z" fill="#5378F9"/>
<path d="M453.052 305.459L453.081 271.538H450.145" fill="white"/>
<path d="M428.477 271.465C428.477 271.465 427.37 250.964 437.066 245.144C446.761 239.325 438.453 225.75 440.388 218.547C442.324 211.345 451.471 206.082 451.471 200.539C451.471 194.996 450.657 179.485 461.166 174.776C471.674 170.067 480.003 176.163 476.681 185.305C473.358 194.447 470.861 204.976 467.262 208.299C463.663 211.621 465.046 216.888 465.599 223.261C466.152 229.633 461.166 240.158 458.396 244.038C455.627 247.918 458.396 254.567 457.583 261.493C457.583 261.493 456.07 271.188 454.549 271.509C453.028 271.831 428.477 271.465 428.477 271.465Z" fill="#1C4DF7"/>
<path d="M450.128 272.095C450.128 272.095 451.348 262.335 440.543 259.586C429.737 256.836 438.997 250.366 436.834 246.946C434.67 243.526 424.467 241.021 424.467 238.406C424.467 235.791 425.394 228.397 413.645 226.16C401.896 223.924 392.619 226.819 396.328 231.163C400.037 235.506 402.835 240.516 406.841 242.094C410.847 243.672 409.314 246.161 408.695 249.207C408.077 252.253 413.641 257.239 416.736 259.081C419.83 260.924 416.736 264.083 417.663 267.378C417.663 267.378 419.35 271.985 421.046 272.14C422.742 272.294 450.128 272.095 450.128 272.095Z" fill="#1C4DF7"/>
<path d="M441.088 272.091C441.088 272.091 440.225 261.9 447.761 259.008C455.297 256.116 448.839 249.37 450.344 245.787C451.848 242.204 458.953 239.589 458.953 236.84C458.953 234.091 458.306 226.372 466.485 224.033C474.663 221.695 481.125 224.721 478.539 229.267C475.952 233.814 474.021 239.028 471.219 240.699C468.417 242.371 469.498 244.969 469.925 248.137C470.352 251.305 466.481 256.539 464.329 258.467C462.178 260.395 464.329 263.701 463.683 267.142C463.683 267.142 462.507 271.961 461.328 272.119C460.149 272.278 441.088 272.091 441.088 272.091Z" fill="#1C4DF7"/>
<path d="M180.193 75.5332L180.494 153.502L397.479 153.201V76.1392L180.193 75.5332Z" fill="white"/>
<path d="M307.383 108.615L219.523 109.03V100.434H307.383V108.615ZM307.383 135.314L219.523 135.728V127.133H307.383V135.314Z" fill="#1C4DF7" stroke="#5378F9"/>
<path d="M210.178 106.205C210.178 109.615 207.414 112.379 204.004 112.379C200.594 112.379 197.83 109.615 197.83 106.205C197.83 102.796 200.594 100.031 204.004 100.031C207.414 100.031 210.178 102.796 210.178 106.205Z" fill="#1C4DF7" stroke="#5378F9"/>
<path d="M210.178 131.131C210.178 134.54 207.414 137.304 204.004 137.304C200.594 137.304 197.83 134.54 197.83 131.131C197.83 127.721 200.594 124.957 204.004 124.957C207.414 124.957 210.178 127.721 210.178 131.131Z" fill="#1C4DF7" stroke="#5378F9"/>
<path d="M332.137 110.435H384.892V136.17H332.137V110.435Z" fill="#E9EDFA"/>
<path d="M331.316 134.941C331.316 134.941 335.423 125.946 339.332 126.926C343.24 127.906 344.212 132.009 347.152 130.248C350.092 128.487 351.992 121.411 354.842 120.305C358.909 118.723 360.251 120.468 365.729 123.599C371.207 126.73 373.534 126.039 375.791 123.729C377.853 121.614 381.688 115.876 385.933 113.322" fill="#1C4DF7"/>
<path d="M331.316 134.941C331.316 134.941 335.423 125.946 339.332 126.926C343.24 127.906 344.212 132.009 347.152 130.248C350.092 128.487 351.992 121.411 354.842 120.305C358.909 118.723 360.251 120.468 365.729 123.599C371.207 126.73 373.534 126.039 375.791 123.729C377.853 121.614 381.688 115.876 385.933 113.322" stroke="#5378F9" stroke-width="3" stroke-linecap="round" stroke-linejoin="round"/>
<path d="M84.8013 76.5417H163.291V151.156H84.8013V76.5417Z" fill="white"/>
<path d="M123.017 142.018C134.232 142.018 143.323 132.927 143.323 121.712C143.323 110.498 134.232 101.406 123.017 101.406C111.803 101.406 102.712 110.498 102.712 121.712C102.712 132.927 111.803 142.018 123.017 142.018Z" fill="#1C4DF7" stroke="#5378F9" stroke-width="6" stroke-linecap="round" stroke-linejoin="round"/>
<path d="M90.458 83.4836H109.426V87.2052H90.458V83.4836ZM90.458 90.8893H109.426V94.6109H90.458V90.8893Z" fill="#1C4DF7" stroke="#5378F9"/>
</g>
<path d="M335.582 359.627L332.798 349.446H334.051L336.179 357.738H336.278L338.446 349.446H339.838L342.006 357.738H342.105L344.233 349.446H345.486L342.702 359.627H341.429L339.182 351.514H339.102L336.855 359.627H335.582ZM349.254 359.786C348.565 359.786 347.96 359.622 347.44 359.294C346.923 358.966 346.518 358.507 346.227 357.917C345.938 357.327 345.794 356.638 345.794 355.849C345.794 355.053 345.938 354.359 346.227 353.766C346.518 353.173 346.923 352.712 347.44 352.384C347.96 352.056 348.565 351.892 349.254 351.892C349.944 351.892 350.547 352.056 351.064 352.384C351.584 352.712 351.989 353.173 352.277 353.766C352.569 354.359 352.714 355.053 352.714 355.849C352.714 356.638 352.569 357.327 352.277 357.917C351.989 358.507 351.584 358.966 351.064 359.294C350.547 359.622 349.944 359.786 349.254 359.786ZM349.254 358.732C349.778 358.732 350.209 358.598 350.547 358.33C350.885 358.061 351.135 357.708 351.298 357.271C351.46 356.833 351.541 356.359 351.541 355.849C351.541 355.338 351.46 354.863 351.298 354.422C351.135 353.981 350.885 353.625 350.547 353.353C350.209 353.081 349.778 352.946 349.254 352.946C348.731 352.946 348.3 353.081 347.962 353.353C347.624 353.625 347.373 353.981 347.211 354.422C347.049 354.863 346.967 355.338 346.967 355.849C346.967 356.359 347.049 356.833 347.211 357.271C347.373 357.708 347.624 358.061 347.962 358.33C348.3 358.598 348.731 358.732 349.254 358.732ZM354.506 359.627V351.991H355.639V353.144H355.719C355.858 352.767 356.11 352.46 356.474 352.225C356.839 351.989 357.25 351.872 357.707 351.872C357.793 351.872 357.901 351.873 358.03 351.877C358.16 351.88 358.257 351.885 358.324 351.892V353.085C358.284 353.075 358.193 353.06 358.05 353.04C357.911 353.017 357.764 353.005 357.608 353.005C357.237 353.005 356.905 353.083 356.613 353.239C356.325 353.391 356.096 353.603 355.927 353.875C355.762 354.144 355.679 354.45 355.679 354.795V359.627H354.506ZM360.808 356.843L360.788 355.392H361.027L364.368 351.991H365.82L362.26 355.59H362.161L360.808 356.843ZM359.714 359.627V349.446H360.888V359.627H359.714ZM364.567 359.627L361.584 355.849L362.419 355.034L366.058 359.627H364.567ZM376.676 353.701L375.622 353.999C375.556 353.824 375.458 353.653 375.329 353.487C375.203 353.318 375.031 353.179 374.812 353.07C374.593 352.96 374.313 352.906 373.972 352.906C373.504 352.906 373.115 353.013 372.803 353.229C372.495 353.441 372.341 353.711 372.341 354.039C372.341 354.331 372.447 354.561 372.659 354.73C372.871 354.899 373.203 355.04 373.654 355.153L374.787 355.431C375.47 355.597 375.979 355.851 376.313 356.192C376.648 356.53 376.816 356.966 376.816 357.499C376.816 357.937 376.69 358.328 376.438 358.673C376.189 359.017 375.841 359.289 375.394 359.488C374.946 359.687 374.426 359.786 373.833 359.786C373.054 359.786 372.409 359.617 371.899 359.279C371.388 358.941 371.065 358.447 370.929 357.798L372.043 357.519C372.149 357.93 372.349 358.239 372.644 358.444C372.943 358.65 373.332 358.752 373.813 358.752C374.36 358.752 374.794 358.636 375.115 358.404C375.44 358.169 375.602 357.887 375.602 357.559C375.602 357.294 375.51 357.072 375.324 356.893C375.138 356.711 374.853 356.575 374.469 356.485L373.196 356.187C372.497 356.021 371.983 355.764 371.655 355.416C371.33 355.065 371.168 354.626 371.168 354.099C371.168 353.668 371.289 353.287 371.531 352.955C371.776 352.624 372.109 352.364 372.53 352.175C372.954 351.986 373.435 351.892 373.972 351.892C374.727 351.892 375.321 352.057 375.752 352.389C376.186 352.72 376.494 353.158 376.676 353.701ZM378.582 362.491V351.991H379.715V353.204H379.854C379.941 353.071 380.06 352.902 380.212 352.697C380.368 352.488 380.59 352.303 380.879 352.14C381.17 351.974 381.565 351.892 382.062 351.892C382.705 351.892 383.272 352.052 383.762 352.374C384.253 352.695 384.635 353.151 384.911 353.741C385.186 354.331 385.323 355.027 385.323 355.829C385.323 356.638 385.186 357.339 384.911 357.932C384.635 358.522 384.254 358.979 383.767 359.304C383.28 359.626 382.718 359.786 382.082 359.786C381.591 359.786 381.198 359.705 380.903 359.543C380.608 359.377 380.381 359.19 380.222 358.981C380.063 358.769 379.941 358.593 379.854 358.454H379.755V362.491H378.582ZM379.735 355.809C379.735 356.386 379.82 356.895 379.989 357.335C380.158 357.773 380.405 358.116 380.729 358.365C381.054 358.61 381.452 358.732 381.923 358.732C382.413 358.732 382.822 358.603 383.151 358.345C383.482 358.083 383.731 357.731 383.896 357.291C384.065 356.847 384.15 356.353 384.15 355.809C384.15 355.272 384.067 354.788 383.901 354.357C383.739 353.923 383.492 353.58 383.161 353.328C382.832 353.073 382.42 352.946 381.923 352.946C381.445 352.946 381.044 353.066 380.719 353.308C380.395 353.547 380.149 353.882 379.984 354.313C379.818 354.74 379.735 355.239 379.735 355.809ZM389.36 359.806C388.876 359.806 388.437 359.715 388.043 359.533C387.648 359.347 387.335 359.08 387.103 358.732C386.871 358.381 386.755 357.957 386.755 357.46C386.755 357.022 386.841 356.668 387.013 356.396C387.186 356.121 387.416 355.905 387.705 355.749C387.993 355.594 388.311 355.478 388.659 355.401C389.01 355.322 389.363 355.259 389.718 355.213C390.182 355.153 390.558 355.108 390.847 355.078C391.138 355.045 391.35 354.99 391.483 354.914C391.619 354.838 391.687 354.705 391.687 354.517V354.477C391.687 353.986 391.553 353.605 391.284 353.333C391.019 353.062 390.616 352.926 390.076 352.926C389.516 352.926 389.077 353.048 388.759 353.294C388.44 353.539 388.217 353.801 388.087 354.079L386.974 353.681C387.173 353.217 387.438 352.856 387.769 352.597C388.104 352.336 388.469 352.153 388.863 352.051C389.261 351.945 389.652 351.892 390.036 351.892C390.281 351.892 390.563 351.921 390.881 351.981C391.203 352.037 391.513 352.155 391.811 352.334C392.113 352.513 392.363 352.783 392.562 353.144C392.761 353.506 392.86 353.99 392.86 354.596V359.627H391.687V358.593H391.627C391.548 358.759 391.415 358.936 391.229 359.125C391.044 359.314 390.797 359.475 390.489 359.607C390.18 359.74 389.804 359.806 389.36 359.806ZM389.539 358.752C390.003 358.752 390.394 358.661 390.712 358.479C391.034 358.297 391.276 358.061 391.438 357.773C391.604 357.485 391.687 357.181 391.687 356.863V355.789C391.637 355.849 391.528 355.904 391.359 355.953C391.193 356 391.001 356.041 390.782 356.078C390.567 356.111 390.356 356.141 390.151 356.167C389.948 356.19 389.784 356.21 389.658 356.227C389.353 356.267 389.068 356.331 388.803 356.421C388.541 356.507 388.329 356.638 388.167 356.813C388.008 356.986 387.928 357.221 387.928 357.519C387.928 357.927 388.079 358.235 388.381 358.444C388.686 358.65 389.072 358.752 389.539 358.752ZM398.104 359.786C397.388 359.786 396.771 359.617 396.254 359.279C395.737 358.941 395.34 358.476 395.061 357.882C394.783 357.289 394.644 356.611 394.644 355.849C394.644 355.073 394.786 354.389 395.071 353.796C395.36 353.199 395.761 352.733 396.274 352.399C396.791 352.061 397.395 351.892 398.084 351.892C398.621 351.892 399.105 351.991 399.536 352.19C399.967 352.389 400.32 352.667 400.595 353.025C400.87 353.383 401.04 353.801 401.107 354.278H399.933C399.844 353.93 399.645 353.622 399.337 353.353C399.032 353.081 398.621 352.946 398.104 352.946C397.646 352.946 397.245 353.065 396.901 353.303C396.559 353.539 396.293 353.872 396.1 354.303C395.911 354.73 395.817 355.232 395.817 355.809C395.817 356.399 395.91 356.913 396.095 357.35C396.284 357.788 396.549 358.128 396.891 358.37C397.235 358.611 397.64 358.732 398.104 358.732C398.409 358.732 398.686 358.679 398.934 358.573C399.183 358.467 399.393 358.315 399.566 358.116C399.738 357.917 399.86 357.678 399.933 357.4H401.107C401.04 357.851 400.876 358.257 400.615 358.618C400.356 358.976 400.013 359.261 399.585 359.473C399.161 359.682 398.667 359.786 398.104 359.786ZM406.024 359.786C405.288 359.786 404.653 359.624 404.119 359.299C403.589 358.971 403.18 358.514 402.892 357.927C402.606 357.337 402.464 356.651 402.464 355.869C402.464 355.087 402.606 354.397 402.892 353.801C403.18 353.201 403.581 352.733 404.095 352.399C404.612 352.061 405.215 351.892 405.904 351.892C406.302 351.892 406.695 351.958 407.083 352.09C407.47 352.223 407.823 352.438 408.142 352.737C408.46 353.032 408.713 353.423 408.902 353.91C409.091 354.397 409.186 354.997 409.186 355.71V356.207H403.299V355.193H407.992C407.992 354.762 407.906 354.377 407.734 354.039C407.565 353.701 407.323 353.434 407.008 353.239C406.696 353.043 406.329 352.946 405.904 352.946C405.437 352.946 405.033 353.062 404.691 353.294C404.353 353.522 404.093 353.821 403.911 354.188C403.728 354.556 403.637 354.951 403.637 355.372V356.048C403.637 356.624 403.737 357.113 403.936 357.514C404.138 357.912 404.418 358.215 404.776 358.424C405.134 358.63 405.55 358.732 406.024 358.732C406.332 358.732 406.61 358.689 406.859 358.603C407.111 358.514 407.328 358.381 407.51 358.205C407.692 358.026 407.833 357.804 407.933 357.539L409.066 357.857C408.947 358.242 408.746 358.58 408.465 358.872C408.183 359.16 407.835 359.385 407.421 359.548C407.006 359.707 406.541 359.786 406.024 359.786ZM415.067 359.627V349.446H416.24V353.204H416.34C416.426 353.071 416.545 352.902 416.698 352.697C416.853 352.488 417.075 352.303 417.364 352.14C417.655 351.974 418.05 351.892 418.547 351.892C419.19 351.892 419.757 352.052 420.247 352.374C420.738 352.695 421.121 353.151 421.396 353.741C421.671 354.331 421.808 355.027 421.808 355.829C421.808 356.638 421.671 357.339 421.396 357.932C421.121 358.522 420.74 358.979 420.252 359.304C419.765 359.626 419.203 359.786 418.567 359.786C418.076 359.786 417.684 359.705 417.389 359.543C417.094 359.377 416.867 359.19 416.708 358.981C416.548 358.769 416.426 358.593 416.34 358.454H416.2V359.627H415.067ZM416.22 355.809C416.22 356.386 416.305 356.895 416.474 357.335C416.643 357.773 416.89 358.116 417.215 358.365C417.539 358.61 417.937 358.732 418.408 358.732C418.898 358.732 419.308 358.603 419.636 358.345C419.967 358.083 420.216 357.731 420.382 357.291C420.551 356.847 420.635 356.353 420.635 355.809C420.635 355.272 420.552 354.788 420.387 354.357C420.224 353.923 419.977 353.58 419.646 353.328C419.318 353.073 418.905 352.946 418.408 352.946C417.931 352.946 417.53 353.066 417.205 353.308C416.88 353.547 416.635 353.882 416.469 354.313C416.303 354.74 416.22 355.239 416.22 355.809ZM424.085 362.491C423.887 362.491 423.709 362.474 423.553 362.441C423.398 362.411 423.29 362.382 423.23 362.352L423.529 361.318C423.814 361.391 424.066 361.417 424.284 361.397C424.503 361.377 424.697 361.28 424.866 361.104C425.038 360.932 425.196 360.651 425.338 360.264L425.557 359.667L422.733 351.991H424.006L426.114 358.076H426.193L428.301 351.991H429.574L426.333 360.741C426.187 361.135 426.006 361.462 425.791 361.72C425.575 361.982 425.325 362.176 425.04 362.302C424.758 362.428 424.44 362.491 424.085 362.491ZM436.452 349.446V359.627H435.219V349.446H436.452ZM438.765 359.627V351.991H439.899V353.144H439.978C440.118 352.767 440.369 352.46 440.734 352.225C441.099 351.989 441.51 351.872 441.967 351.872C442.053 351.872 442.161 351.873 442.29 351.877C442.419 351.88 442.517 351.885 442.583 351.892V353.085C442.544 353.075 442.453 353.06 442.31 353.04C442.171 353.017 442.023 353.005 441.868 353.005C441.496 353.005 441.165 353.083 440.873 353.239C440.585 353.391 440.356 353.603 440.187 353.875C440.021 354.144 439.939 354.45 439.939 354.795V359.627H438.765ZM446.221 359.806C445.738 359.806 445.298 359.715 444.904 359.533C444.51 359.347 444.196 359.08 443.964 358.732C443.732 358.381 443.616 357.957 443.616 357.46C443.616 357.022 443.702 356.668 443.875 356.396C444.047 356.121 444.278 355.905 444.566 355.749C444.854 355.594 445.172 355.478 445.52 355.401C445.872 355.322 446.225 355.259 446.579 355.213C447.043 355.153 447.42 355.108 447.708 355.078C448 355.045 448.212 354.99 448.344 354.914C448.48 354.838 448.548 354.705 448.548 354.517V354.477C448.548 353.986 448.414 353.605 448.145 353.333C447.88 353.062 447.478 352.926 446.937 352.926C446.377 352.926 445.938 353.048 445.62 353.294C445.302 353.539 445.078 353.801 444.949 354.079L443.835 353.681C444.034 353.217 444.299 352.856 444.631 352.597C444.965 352.336 445.33 352.153 445.724 352.051C446.122 351.945 446.513 351.892 446.898 351.892C447.143 351.892 447.425 351.921 447.743 351.981C448.064 352.037 448.374 352.155 448.672 352.334C448.974 352.513 449.224 352.783 449.423 353.144C449.622 353.506 449.721 353.99 449.721 354.596V359.627H448.548V358.593H448.488C448.409 358.759 448.276 358.936 448.091 359.125C447.905 359.314 447.658 359.475 447.35 359.607C447.042 359.74 446.666 359.806 446.221 359.806ZM446.4 358.752C446.864 358.752 447.256 358.661 447.574 358.479C447.895 358.297 448.137 358.061 448.3 357.773C448.465 357.485 448.548 357.181 448.548 356.863V355.789C448.498 355.849 448.389 355.904 448.22 355.953C448.054 356 447.862 356.041 447.643 356.078C447.428 356.111 447.217 356.141 447.012 356.167C446.81 356.19 446.646 356.21 446.52 356.227C446.215 356.267 445.93 356.331 445.665 356.421C445.403 356.507 445.191 356.638 445.028 356.813C444.869 356.986 444.79 357.221 444.79 357.519C444.79 357.927 444.94 358.235 445.242 358.444C445.547 358.65 445.933 358.752 446.4 358.752ZM459.102 359.627H455.96V349.446H459.241C460.228 349.446 461.074 349.649 461.776 350.057C462.479 350.461 463.018 351.043 463.392 351.802C463.767 352.558 463.954 353.463 463.954 354.517C463.954 355.577 463.765 356.49 463.387 357.256C463.009 358.018 462.459 358.605 461.737 359.016C461.014 359.423 460.136 359.627 459.102 359.627ZM457.192 358.534H459.022C459.864 358.534 460.562 358.371 461.115 358.046C461.669 357.722 462.081 357.259 462.353 356.659C462.625 356.059 462.761 355.345 462.761 354.517C462.761 353.695 462.626 352.987 462.358 352.394C462.089 351.797 461.688 351.34 461.155 351.021C460.621 350.7 459.957 350.539 459.161 350.539H457.192V358.534ZM469.065 359.786C468.329 359.786 467.694 359.624 467.161 359.299C466.63 358.971 466.221 358.514 465.933 357.927C465.647 357.337 465.505 356.651 465.505 355.869C465.505 355.087 465.647 354.397 465.933 353.801C466.221 353.201 466.622 352.733 467.136 352.399C467.653 352.061 468.256 351.892 468.945 351.892C469.343 351.892 469.736 351.958 470.124 352.09C470.511 352.223 470.864 352.438 471.183 352.737C471.501 353.032 471.754 353.423 471.943 353.91C472.132 354.397 472.227 354.997 472.227 355.71V356.207H466.34V355.193H471.033C471.033 354.762 470.947 354.377 470.775 354.039C470.606 353.701 470.364 353.434 470.049 353.239C469.737 353.043 469.37 352.946 468.945 352.946C468.478 352.946 468.074 353.062 467.732 353.294C467.394 353.522 467.134 353.821 466.952 354.188C466.769 354.556 466.678 354.951 466.678 355.372V356.048C466.678 356.624 466.778 357.113 466.977 357.514C467.179 357.912 467.459 358.215 467.817 358.424C468.175 358.63 468.591 358.732 469.065 358.732C469.373 358.732 469.651 358.689 469.9 358.603C470.152 358.514 470.369 358.381 470.551 358.205C470.733 358.026 470.874 357.804 470.974 357.539L472.107 357.857C471.988 358.242 471.787 358.58 471.506 358.872C471.224 359.16 470.876 359.385 470.462 359.548C470.047 359.707 469.582 359.786 469.065 359.786ZM479.42 353.701L478.366 353.999C478.3 353.824 478.202 353.653 478.073 353.487C477.947 353.318 477.775 353.179 477.556 353.07C477.337 352.96 477.057 352.906 476.716 352.906C476.249 352.906 475.859 353.013 475.548 353.229C475.239 353.441 475.085 353.711 475.085 354.039C475.085 354.331 475.191 354.561 475.403 354.73C475.616 354.899 475.947 355.04 476.398 355.153L477.531 355.431C478.214 355.597 478.723 355.851 479.058 356.192C479.392 356.53 479.56 356.966 479.56 357.499C479.56 357.937 479.434 358.328 479.182 358.673C478.933 359.017 478.585 359.289 478.138 359.488C477.69 359.687 477.17 359.786 476.577 359.786C475.798 359.786 475.153 359.617 474.643 359.279C474.132 358.941 473.809 358.447 473.673 357.798L474.787 357.519C474.893 357.93 475.094 358.239 475.388 358.444C475.687 358.65 476.076 358.752 476.557 358.752C477.104 358.752 477.538 358.636 477.859 358.404C478.184 358.169 478.347 357.887 478.347 357.559C478.347 357.294 478.254 357.072 478.068 356.893C477.883 356.711 477.598 356.575 477.213 356.485L475.94 356.187C475.241 356.021 474.727 355.764 474.399 355.416C474.074 355.065 473.912 354.626 473.912 354.099C473.912 353.668 474.033 353.287 474.275 352.955C474.52 352.624 474.853 352.364 475.274 352.175C475.698 351.986 476.179 351.892 476.716 351.892C477.472 351.892 478.065 352.057 478.496 352.389C478.93 352.72 479.238 353.158 479.42 353.701ZM481.326 359.627V351.991H482.499V359.627H481.326ZM481.922 350.718C481.694 350.718 481.497 350.64 481.331 350.485C481.168 350.329 481.087 350.142 481.087 349.923C481.087 349.704 481.168 349.517 481.331 349.361C481.497 349.205 481.694 349.127 481.922 349.127C482.151 349.127 482.347 349.205 482.509 349.361C482.675 349.517 482.758 349.704 482.758 349.923C482.758 350.142 482.675 350.329 482.509 350.485C482.347 350.64 482.151 350.718 481.922 350.718ZM487.73 362.65C487.164 362.65 486.676 362.577 486.269 362.431C485.861 362.289 485.521 362.1 485.25 361.865C484.981 361.633 484.767 361.384 484.608 361.119L485.543 360.463C485.649 360.602 485.783 360.761 485.946 360.94C486.108 361.122 486.33 361.28 486.612 361.412C486.897 361.548 487.27 361.616 487.73 361.616C488.347 361.616 488.856 361.467 489.257 361.169C489.658 360.87 489.858 360.403 489.858 359.767V358.215H489.759C489.673 358.355 489.55 358.527 489.391 358.732C489.235 358.935 489.01 359.115 488.715 359.274C488.423 359.43 488.029 359.508 487.532 359.508C486.915 359.508 486.362 359.362 485.871 359.071C485.384 358.779 484.998 358.355 484.713 357.798C484.431 357.241 484.29 356.565 484.29 355.769C484.29 354.987 484.428 354.306 484.703 353.726C484.978 353.143 485.361 352.692 485.851 352.374C486.342 352.052 486.908 351.892 487.551 351.892C488.049 351.892 488.443 351.974 488.735 352.14C489.03 352.303 489.255 352.488 489.411 352.697C489.57 352.902 489.693 353.071 489.779 353.204H489.898V351.991H491.032V359.846C491.032 360.502 490.882 361.036 490.584 361.447C490.289 361.861 489.891 362.164 489.391 362.357C488.894 362.552 488.34 362.65 487.73 362.65ZM487.691 358.454C488.161 358.454 488.559 358.346 488.884 358.131C489.209 357.915 489.456 357.606 489.625 357.201C489.794 356.797 489.878 356.313 489.878 355.749C489.878 355.199 489.795 354.714 489.63 354.293C489.464 353.872 489.219 353.542 488.894 353.303C488.569 353.065 488.168 352.946 487.691 352.946C487.194 352.946 486.779 353.071 486.448 353.323C486.12 353.575 485.873 353.913 485.707 354.338C485.545 354.762 485.463 355.232 485.463 355.749C485.463 356.28 485.546 356.749 485.712 357.156C485.881 357.561 486.13 357.879 486.458 358.111C486.789 358.34 487.2 358.454 487.691 358.454ZM494.353 355.034V359.627H493.179V351.991H494.313V353.184H494.412C494.591 352.796 494.863 352.485 495.228 352.249C495.592 352.011 496.063 351.892 496.64 351.892C497.157 351.892 497.609 351.998 497.997 352.21C498.385 352.419 498.686 352.737 498.902 353.164C499.117 353.588 499.225 354.125 499.225 354.775V359.627H498.051V354.855C498.051 354.255 497.896 353.787 497.584 353.453C497.273 353.115 496.845 352.946 496.301 352.946C495.927 352.946 495.592 353.027 495.297 353.189C495.006 353.352 494.775 353.588 494.606 353.9C494.437 354.212 494.353 354.589 494.353 355.034Z" fill="#97A3B4"/>
<a href="https://iconscout.com/illustrations/work-space">
<rect fill="black" fill-opacity="0" y="0.028409" width="77.4015" height="16.9432"/>
</a>
<a href="https://iconscout.com/contributors/creative-tim">
<rect fill="black" fill-opacity="0" x="101.486" y="0.028409" width="66.3123" height="16.9432"/>
</a>
<defs>
<clipPath id="clip0_89_331">
<rect width="500" height="345.627" fill="white" transform="translate(0.5)"/>
</clipPath>
</defs>
</svg>
