<svg width="500" height="437" viewBox="0 0 500 437" fill="none" xmlns="http://www.w3.org/2000/svg">
<g clip-path="url(#clip0_79_351)">
<path d="M396.159 165.447C396.159 84.3435 330.414 18.5966 249.313 18.5966C168.212 18.5966 102.467 84.3435 102.467 165.447V289.926C102.467 371.029 168.212 436.776 249.313 436.776C330.414 436.776 396.159 371.029 396.159 289.926V165.447Z" fill="#7EC1FB" fill-opacity="0.2"/>
<path d="M126.151 129.131C126.151 129.131 137.331 117.576 139.289 103.757C141.248 89.9375 153.759 86.6588 162.311 89.2865C170.863 91.9142 178.77 115.85 199.851 115.724C220.932 115.599 256.423 98.4952 257.737 93.8909C259.051 89.2865 261.027 80.7526 275.497 78.7639C289.967 76.7753 290.624 62.9741 311.675 62.9741C332.726 62.9741 369.782 66.5035 373.073 67.8174C376.363 69.1312 391.908 71.3169 395.169 89.5433C395.169 89.5433 397.815 97.2113 393.21 118.901C388.606 140.591 420.836 154.411 428.731 154.411C436.626 154.411 459.648 203.088 433.993 244.527C408.337 285.966 411.628 301.75 384.658 285.31C357.689 268.869 360.323 285.966 357.689 268.863C355.056 251.759 341.905 260.968 337.982 251.759C334.058 242.55 347.847 224.133 338.639 220.186C329.43 216.238 306.39 223.476 301.804 199.797C297.217 176.119 268.91 204.402 282.096 226.11C295.282 247.818 267.626 231.371 267.626 244.527C267.626 257.683 251.843 268.206 259.731 278.072C267.62 287.937 288.021 343.196 224.873 341.876C161.726 340.556 197.241 353.061 184.091 354.375C170.941 355.689 163.643 337.928 142.592 337.928C121.541 337.928 49.1908 333.987 51.1616 302.413C53.1323 270.84 72.1111 276.734 71.8304 249.132C71.5497 221.529 39.7074 189.597 87.8591 160.49C136.011 131.383 126.151 129.131 126.151 129.131Z" fill="#1C4DF7"/>
<path d="M119.922 56.0468H18.1069V293.831H119.922V56.0468Z" fill="url(#paint0_linear_79_351)"/>
<path d="M71.8304 98.573C80.6828 98.573 87.8591 91.3967 87.8591 82.5443C87.8591 73.6919 80.6828 66.5156 71.8304 66.5156C62.978 66.5156 55.8018 73.6919 55.8018 82.5443C55.8018 91.3967 62.978 98.573 71.8304 98.573Z" fill="#1C4DF7"/>
<path d="M82.4544 115.724H30.4807C28.9569 115.724 27.7217 116.96 27.7217 118.483V119.325C27.7217 120.849 28.9569 122.084 30.4807 122.084H82.4544C83.9782 122.084 85.2134 120.849 85.2134 119.325V118.483C85.2134 116.96 83.9782 115.724 82.4544 115.724Z" fill="#1C4DF7"/>
<path d="M110.081 115.724H101.409C99.8856 115.724 98.6504 116.96 98.6504 118.483V119.325C98.6504 120.849 99.8856 122.084 101.409 122.084H110.081C111.604 122.084 112.84 120.849 112.84 119.325V118.483C112.84 116.96 111.604 115.724 110.081 115.724Z" fill="#1C4DF7"/>
<path d="M64.7417 129.131H30.4807C28.9569 129.131 27.7217 130.367 27.7217 131.891V132.733C27.7217 134.256 28.9569 135.492 30.4807 135.492H64.7417C66.2655 135.492 67.5008 134.256 67.5008 132.733V131.891C67.5008 130.367 66.2655 129.131 64.7417 129.131Z" fill="#1C4DF7"/>
<path d="M110.075 129.131H108.498C106.975 129.131 105.739 130.367 105.739 131.891V132.733C105.739 134.256 106.975 135.492 108.498 135.492H110.075C111.599 135.492 112.834 134.256 112.834 132.733V131.891C112.834 130.367 111.599 129.131 110.075 129.131Z" fill="#1C4DF7"/>
<path d="M88.9697 144.031H30.9763C29.4525 144.031 28.2173 145.267 28.2173 146.791V147.633C28.2173 149.156 29.4525 150.392 30.9763 150.392H88.9697C90.4935 150.392 91.7288 149.156 91.7288 147.633V146.791C91.7288 145.267 90.4935 144.031 88.9697 144.031Z" fill="#1C4DF7"/>
<path d="M110.57 144.031H105.912C104.389 144.031 103.153 145.267 103.153 146.791V147.633C103.153 149.156 104.389 150.392 105.912 150.392H110.57C112.094 150.392 113.33 149.156 113.33 147.633V146.791C113.33 145.267 112.094 144.031 110.57 144.031Z" fill="#1C4DF7"/>
<path d="M78.7218 157.313H30.9763C29.4525 157.313 28.2173 158.549 28.2173 160.072V160.914C28.2173 162.438 29.4525 163.673 30.9763 163.673H78.7218C80.2456 163.673 81.4808 162.438 81.4808 160.914V160.072C81.4808 158.549 80.2456 157.313 78.7218 157.313Z" fill="#1C4DF7"/>
<path d="M110.577 157.313H101.905C100.381 157.313 99.1462 158.549 99.1462 160.072V160.914C99.1462 162.438 100.381 163.673 101.905 163.673H110.577C112.1 163.673 113.336 162.438 113.336 160.914V160.072C113.336 158.549 112.1 157.313 110.577 157.313Z" fill="#1C4DF7"/>
<path d="M57.2169 171.216H30.9763C29.4525 171.216 28.2173 172.451 28.2173 173.975V174.817C28.2173 176.341 29.4525 177.576 30.9763 177.576H57.2169C58.7407 177.576 59.976 176.341 59.976 174.817V173.975C59.976 172.451 58.7407 171.216 57.2169 171.216Z" fill="#1C4DF7"/>
<path d="M110.576 171.216H96.5124C94.9887 171.216 93.7534 172.451 93.7534 173.975V174.817C93.7534 176.341 94.9887 177.576 96.5124 177.576H110.576C112.1 177.576 113.335 176.341 113.335 174.817V173.975C113.335 172.451 112.1 171.216 110.576 171.216Z" fill="#1C4DF7"/>
<path d="M77.4559 184.623H30.9763C29.4525 184.623 28.2173 185.858 28.2173 187.382V188.224C28.2173 189.747 29.4525 190.983 30.9763 190.983H77.4559C78.9797 190.983 80.2149 189.747 80.2149 188.224V187.382C80.2149 185.858 78.9797 184.623 77.4559 184.623Z" fill="#1C4DF7"/>
<path d="M110.577 184.623H101.905C100.381 184.623 99.1462 185.858 99.1462 187.382V188.224C99.1462 189.747 100.381 190.983 101.905 190.983H110.577C112.1 190.983 113.336 189.747 113.336 188.224V187.382C113.336 185.858 112.1 184.623 110.577 184.623Z" fill="#1C4DF7"/>
<path d="M290.94 285.501C289.086 282.063 288.36 278.129 288.867 274.256C289.374 270.383 291.088 266.768 293.765 263.924C297.545 259.899 300.621 254.674 300.37 248.457C299.773 232.93 314.655 227.346 317.139 234.178C319.624 241.01 318.381 264.635 328.313 266.468C338.244 268.302 353.156 279.606 341.355 293.832C329.555 308.057 324.592 285.716 329.555 308.075C334.518 330.434 305.96 348.839 299.098 331.867C292.236 314.895 271.185 320.902 286.061 309.317C295.999 301.571 294.727 292.572 290.94 285.501Z" fill="#1C4DF7"/>
<path d="M358.442 103.769L360.079 102.037" stroke="white" stroke-miterlimit="10" stroke-linecap="round"/>
<path d="M362.682 99.2836C365.106 96.7097 368.337 93.2638 371.747 89.603" stroke="white" stroke-miterlimit="10" stroke-linecap="round" stroke-dasharray="6.35 6.35"/>
<path d="M373.036 88.212L374.661 86.4557" stroke="white" stroke-miterlimit="10" stroke-linecap="round"/>
<path d="M374.661 89.5495C377.194 89.5495 379.247 87.4961 379.247 84.963C379.247 82.43 377.194 80.3766 374.661 80.3766C372.128 80.3766 370.074 82.43 370.074 84.963C370.074 87.4961 372.128 89.5495 374.661 89.5495Z" fill="white"/>
<path d="M353.168 113.282C355.701 113.282 357.755 111.228 357.755 108.695C357.755 106.162 355.701 104.109 353.168 104.109C350.635 104.109 348.582 106.162 348.582 108.695C348.582 111.228 350.635 113.282 353.168 113.282Z" fill="white"/>
<path d="M127.59 225.799C127.59 225.799 127.823 225.005 128.39 223.553" stroke="white" stroke-miterlimit="10" stroke-linecap="round"/>
<path d="M130.326 219.159C139.469 200.084 175.205 145.507 289.43 129.759" stroke="white" stroke-miterlimit="10" stroke-linecap="round" stroke-dasharray="8.03 8.03"/>
<path d="M291.818 129.436L294.207 129.131M122.968 230.714C122.968 230.714 123.404 231.449 124.204 232.751" stroke="white" stroke-miterlimit="10" stroke-linecap="round"/>
<path d="M126.868 237.002C133.861 248.015 149.101 270.642 162.92 281.959" stroke="white" stroke-miterlimit="10" stroke-linecap="round" stroke-dasharray="8.42 8.42"/>
<path d="M164.903 283.523C165.554 284.013 166.205 284.473 166.85 284.897" stroke="white" stroke-miterlimit="10" stroke-linecap="round"/>
<path d="M122.968 250.529C134.291 250.529 143.47 241.35 143.47 230.027C143.47 218.704 134.291 209.526 122.968 209.526C111.645 209.526 102.467 218.704 102.467 230.027C102.467 241.35 111.645 250.529 122.968 250.529Z" stroke="white" stroke-width="4" stroke-miterlimit="10"/>
<path d="M122.968 238.848C127.46 238.848 131.102 235.207 131.102 230.714C131.102 226.222 127.46 222.581 122.968 222.581C118.476 222.581 114.834 226.222 114.834 230.714C114.834 235.207 118.476 238.848 122.968 238.848Z" fill="white"/>
<path d="M330.929 147.208C342.251 147.208 351.43 138.029 351.43 126.707C351.43 115.384 342.251 106.205 330.929 106.205C319.606 106.205 310.427 115.384 310.427 126.707C310.427 138.029 319.606 147.208 330.929 147.208Z" stroke="white" stroke-width="4" stroke-miterlimit="10"/>
<path d="M330.929 135.533C335.421 135.533 339.063 131.892 339.063 127.399C339.063 122.907 335.421 119.266 330.929 119.266C326.437 119.266 322.795 122.907 322.795 127.399C322.795 131.892 326.437 135.533 330.929 135.533Z" fill="white"/>
<path d="M301.618 133.031C304.151 133.031 306.205 130.978 306.205 128.445C306.205 125.912 304.151 123.858 301.618 123.858C299.085 123.858 297.032 125.912 297.032 128.445C297.032 130.978 299.085 133.031 301.618 133.031Z" fill="white"/>
<path d="M166.85 289.49C169.383 289.49 171.436 287.436 171.436 284.903C171.436 282.37 169.383 280.317 166.85 280.317C164.317 280.317 162.263 282.37 162.263 284.903C162.263 287.436 164.317 289.49 166.85 289.49Z" fill="white"/>
<path d="M227.829 284.904H179.91C179.148 284.904 178.531 285.521 178.531 286.283V286.701C178.531 287.463 179.148 288.081 179.91 288.081H227.829C228.591 288.081 229.209 287.463 229.209 286.701V286.283C229.209 285.521 228.591 284.904 227.829 284.904Z" fill="#F8F8FF"/>
<path d="M227.829 293.832H179.91C179.148 293.832 178.531 294.45 178.531 295.212V295.63C178.531 296.391 179.148 297.009 179.91 297.009H227.829C228.591 297.009 229.209 296.391 229.209 295.63V295.212C229.209 294.45 228.591 293.832 227.829 293.832Z" fill="#F8F8FF"/>
<path d="M227.829 305.082H179.91C179.148 305.082 178.531 305.7 178.531 306.462V306.88C178.531 307.642 179.148 308.259 179.91 308.259H227.829C228.591 308.259 229.209 307.642 229.209 306.88V306.462C229.209 305.7 228.591 305.082 227.829 305.082Z" fill="#F8F8FF"/>
<path d="M209.603 314.047H179.91C179.148 314.047 178.531 314.665 178.531 315.427V315.845C178.531 316.607 179.148 317.224 179.91 317.224H209.603C210.365 317.224 210.982 316.607 210.982 315.845V315.427C210.982 314.665 210.365 314.047 209.603 314.047Z" fill="#F8F8FF"/>
<path d="M429.232 91.5377H381.313C380.551 91.5377 379.934 92.1554 379.934 92.9172V93.3353C379.934 94.0972 380.551 94.7148 381.313 94.7148H429.232C429.994 94.7148 430.612 94.0972 430.612 93.3353V92.9172C430.612 92.1554 429.994 91.5377 429.232 91.5377Z" fill="#E1E6FB"/>
<path d="M429.232 100.466H381.313C380.551 100.466 379.934 101.084 379.934 101.846V102.264C379.934 103.026 380.551 103.643 381.313 103.643H429.232C429.994 103.643 430.612 103.026 430.612 102.264V101.846C430.612 101.084 429.994 100.466 429.232 100.466Z" fill="#E1E6FB"/>
<path d="M429.232 111.717H381.313C380.551 111.717 379.934 112.335 379.934 113.096V113.514C379.934 114.276 380.551 114.894 381.313 114.894H429.232C429.994 114.894 430.612 114.276 430.612 113.514V113.096C430.612 112.335 429.994 111.717 429.232 111.717Z" fill="#E1E6FB"/>
<path d="M411.006 120.681H381.313C380.551 120.681 379.934 121.299 379.934 122.06V122.478C379.934 123.24 380.551 123.858 381.313 123.858H411.006C411.768 123.858 412.385 123.24 412.385 122.478V122.06C412.385 121.299 411.768 120.681 411.006 120.681Z" fill="#E1E6FB"/>
<path d="M171.437 284.897C171.437 284.897 172.267 285.034 173.826 285.225" stroke="#BAC5F4" stroke-miterlimit="10"/>
<path d="M178.465 285.734C211.311 288.863 347.74 292.793 331.478 140.239" stroke="white" stroke-miterlimit="10" stroke-dasharray="7.86 7.86"/>
<path d="M331.233 137.898C331.144 137.11 331.048 136.322 330.947 135.51" stroke="#BAC5F4" stroke-miterlimit="10"/>
<path d="M427.536 137.402C427.536 137.402 417.832 127.531 426.939 120.544C436.046 113.556 438.489 113.975 438.566 120.938C438.644 127.901 431.83 128.958 435.957 136.298C440.083 143.637 435.091 145.56 432.003 143.966C428.916 142.371 427.536 137.402 427.536 137.402ZM425.888 139.66C425.888 139.66 426.485 145.035 431.34 147.346C436.196 149.657 444.437 155.109 443.708 159.439C442.98 163.769 433.329 151.675 430.307 152.738C427.285 153.801 420.68 149.842 418.698 144.76C416.715 139.678 417.091 135.635 420.089 135.671C423.087 135.706 425.888 139.66 425.888 139.66Z" fill="#1C4DF7"/>
<path d="M408.925 50.591H485.306C497.572 50.591 504.565 36.2225 496.652 26.8227C492.042 21.3344 483.61 17.2198 468.525 17.817C468.525 17.817 447.438 -22.1951 417.895 17.7572C417.895 17.7572 393.589 15.3685 391.726 30.8955L391.672 31.3554C391.402 33.7799 391.647 36.2341 392.391 38.5572C393.136 40.8804 394.363 43.02 395.991 44.8361C397.62 46.6521 399.614 48.1036 401.843 49.0953C404.072 50.0871 406.485 50.5968 408.925 50.591ZM17.3568 394.307H93.714C105.98 394.307 112.974 379.938 105.061 370.544C100.444 365.05 92.018 360.941 76.9269 361.533C76.9269 361.533 55.846 321.521 26.2968 361.479C26.2968 361.479 1.99703 359.09 0.133786 374.647C0.133786 374.802 0.097938 374.958 0.0800222 375.107C-0.184825 377.531 0.0650682 379.983 0.813356 382.303C1.56164 384.624 2.79145 386.76 4.42232 388.573C6.0532 390.385 8.0484 391.833 10.2773 392.821C12.5063 393.809 14.9187 394.315 17.3568 394.307Z" fill="#7EC1FB" fill-opacity="0.2"/>
</g>
<defs>
<linearGradient id="paint0_linear_79_351" x1="69.4655" y1="131.341" x2="67.1723" y2="352.971" gradientUnits="userSpaceOnUse">
<stop offset="0.03" stop-color="white"/>
<stop offset="1" stop-color="#7EC1FB" stop-opacity="0.2"/>
</linearGradient>
<clipPath id="clip0_79_351">
<rect width="500" height="436.776" fill="white"/>
</clipPath>
</defs>
</svg>
