<svg width="101" height="101" viewBox="0 0 101 101" fill="none" xmlns="http://www.w3.org/2000/svg">
<path d="M44.2499 71.6091H17.1666V63.2758H44.2499C46.9114 63.2767 49.5218 64.006 51.7984 65.3845C54.075 66.7631 55.931 68.7383 57.1652 71.0963C58.3994 73.4543 58.9648 76.1051 58.8001 78.7614C58.6354 81.4178 57.747 83.9784 56.231 86.1659C54.715 88.3534 52.6293 90.0843 50.1999 91.1711C47.7705 92.2579 45.0899 92.6592 42.4487 92.3314C39.8076 92.0037 37.3064 90.9594 35.2163 89.3117C33.1262 87.664 31.5269 85.4758 30.5916 82.9841L38.3958 80.055C38.7965 81.1229 39.4818 82.0608 40.3775 82.767C41.2732 83.4732 42.3451 83.9209 43.477 84.0615C44.609 84.2021 45.7578 84.0302 46.799 83.5645C47.8403 83.0988 48.7342 82.357 49.384 81.4196C50.0338 80.4821 50.4147 79.3847 50.4853 78.2463C50.556 77.1079 50.3137 75.9718 49.7849 74.9612C49.256 73.9506 48.4606 73.104 47.485 72.5131C46.5093 71.9222 45.3905 71.6096 44.2499 71.6091ZM21.3333 46.6091H77.5832C80.2447 46.6101 82.8551 47.3393 85.1317 48.7179C87.4084 50.0964 89.2643 52.0717 90.4985 54.4297C91.7327 56.7876 92.2981 59.4384 92.1334 62.0947C91.9688 64.7511 91.0803 67.3117 89.5643 69.4992C88.0483 71.6867 85.9627 73.4176 83.5332 74.5045C81.1038 75.5913 78.4233 75.9925 75.7821 75.6648C73.1409 75.337 70.6397 74.2927 68.5497 72.645C66.4596 70.9974 64.8602 68.8091 63.9249 66.3175L71.7291 63.3883C72.1298 64.4562 72.8152 65.3941 73.7109 66.1003C74.6066 66.8066 75.6784 67.2542 76.8104 67.3948C77.9423 67.5354 79.0911 67.3635 80.1324 66.8978C81.1736 66.4321 82.0676 65.6904 82.7173 64.7529C83.3671 63.8155 83.748 62.7181 83.8186 61.5796C83.8893 60.4412 83.6471 59.3051 83.1182 58.2945C82.5893 57.2839 81.794 56.4373 80.8183 55.8464C79.8426 55.2555 78.7239 54.9429 77.5832 54.9425H21.3333C18.018 54.9425 14.8386 53.6255 12.4944 51.2813C10.1502 48.9371 8.83325 45.7577 8.83325 42.4425C8.83325 39.1272 10.1502 35.9478 12.4944 33.6036C14.8386 31.2594 18.018 29.9425 21.3333 29.9425H56.7499C57.8905 29.942 59.0093 29.6294 59.985 29.0385C60.9606 28.4476 61.756 27.601 62.2849 26.5904C62.8137 25.5798 63.056 24.4437 62.9853 23.3053C62.9147 22.1668 62.5338 21.0694 61.884 20.132C61.2342 19.1945 60.3403 18.4528 59.299 17.9871C58.2578 17.5214 57.109 17.3495 55.977 17.4901C54.8451 17.6307 53.7732 18.0783 52.8775 18.7846C51.9818 19.4908 51.2965 20.4287 50.8958 21.4966L43.0916 18.5716C44.2935 15.375 46.579 12.7014 49.5497 11.0167C52.5204 9.33195 55.988 8.74293 59.3484 9.35224C62.7087 9.96154 65.7488 11.7305 67.9388 14.351C70.1289 16.9715 71.3301 20.2773 71.3332 23.6925C71.3332 27.5602 69.7968 31.2695 67.0619 34.0044C64.327 36.7393 60.6177 38.2758 56.7499 38.2758H21.3333C20.2282 38.2758 19.1684 38.7148 18.387 39.4962C17.6056 40.2776 17.1666 41.3374 17.1666 42.4425C17.1666 43.5475 17.6056 44.6073 18.387 45.3887C19.1684 46.1701 20.2282 46.6091 21.3333 46.6091Z" fill="url(#paint0_linear_84_14265)"/>
<defs>
<linearGradient id="paint0_linear_84_14265" x1="50.4973" y1="9.11816" x2="50.4973" y2="92.4425" gradientUnits="userSpaceOnUse">
<stop stop-color="#52ACFA"/>
<stop offset="1" stop-color="#5378F9"/>
</linearGradient>
</defs>
</svg>
